# xmcd CD database file
#
# Track frame offsets:
#	150
#	19850
#	39554
#	53906
#	76345
#	95025
#	113962
#	131776
#	166484
#	186295
#
# Disc length: 2786 seconds
#
# Revision: 1
# Processed by: cddbd v1.5.2PL0 Copyright (c) Steve Scherf et al.
# Submitted via: CDex 1.51
#
DISCID=880ae00a
DTITLE=Michael Martin Murphey - Ridin The Rio Grande
DYEAR=2008
DGENRE=Country
TTITLE0=Way Out There
TTITLE1=Cherokee Fiddle
TTITLE2=What Am I Doin' Hangin' Round ?
TTITLE3=Life Is Like A Mountain Railroad
TTITLE4=Railroad Corral
TTITLE5=Trusty Lariat
TTITLE6=Mic and Paddy
TTITLE7=Renegade
TTITLE8=Springtime In The Rockies
TTITLE9=Wildfire (hidden track)
EXTD=YEAR: 2008
EXTT0=
EXTT1=
EXTT2=
EXTT3=
EXTT4=
EXTT5=
EXTT6=
EXTT7=
EXTT8=
EXTT9=
PLAYORDER=
